<svg width="133" height="20" viewBox="0 0 133 20" fill="none" xmlns="http://www.w3.org/2000/svg">
<path d="M38.513 7.62939e-06H41.4919C41.6558 7.62939e-06 41.7902 0.132568 41.7902 0.298269V19.3649C41.7902 19.5287 41.6576 19.6631 41.4919 19.6631H38.513C38.3491 19.6631 38.2147 19.5306 38.2147 19.3649V0.298269C38.2147 0.134409 38.3473 7.62939e-06 38.513 7.62939e-06Z" fill="#3D3A39"/>
<path d="M23.69 15.6256C23.69 12.7074 26.1552 11.1756 31.8719 10.592C31.8203 9.25347 31.2109 8.23349 29.4582 8.23349C28.2228 8.23349 27.0316 8.72323 25.8017 9.38235C25.6581 9.45967 25.4814 9.40996 25.4004 9.2682L24.3454 7.41972C24.2644 7.27795 24.3123 7.09568 24.454 7.01467C26.0797 6.08859 28.0203 5.36319 30.1449 5.36319C33.7535 5.36319 35.6075 7.43076 35.6075 11.3708V19.3649C35.6075 19.5287 35.4749 19.6631 35.3092 19.6631H32.8127C32.6654 19.6631 32.5402 19.5564 32.5181 19.4109L32.2769 17.8644H32.1996C30.955 18.8862 29.5318 19.6631 27.9061 19.6631C25.3654 19.6631 23.6881 17.9362 23.6881 15.6256H23.69ZM31.8719 15.528V12.7792C28.4161 13.2174 27.247 14.1159 27.247 15.3328C27.247 16.4025 28.035 16.8646 29.1268 16.8646C30.2186 16.8646 30.9808 16.3786 31.87 15.528H31.8719Z" fill="#3D3A39"/>
<path d="M43.9474 15.6256C43.9474 12.7074 46.4127 11.1756 52.1294 10.592C52.0778 9.25347 51.4684 8.23349 49.7157 8.23349C48.4803 8.23349 47.2891 8.72323 46.0592 9.38235C45.9156 9.45967 45.7389 9.40996 45.6578 9.2682L44.6029 7.41972C44.5219 7.27795 44.5697 7.09568 44.7115 7.01467C46.3372 6.08859 48.2778 5.36319 50.4024 5.36319C54.011 5.36319 55.865 7.43076 55.865 11.3708V19.3649C55.865 19.5287 55.7324 19.6631 55.5667 19.6631H53.0702C52.9229 19.6631 52.7977 19.5564 52.7756 19.4109L52.5344 17.8644H52.4571C51.2125 18.8862 49.7893 19.6631 48.1636 19.6631C45.6229 19.6631 43.9456 17.9362 43.9456 15.6256H43.9474ZM52.1294 15.528V12.7792C48.6736 13.2174 47.5045 14.1159 47.5045 15.3328C47.5045 16.4025 48.2925 16.8646 49.3843 16.8646C50.476 16.8646 51.2383 16.3786 52.1275 15.528H52.1294Z" fill="#3D3A39"/>
<path d="M2.2388 4.4776C3.47525 4.4776 4.4776 3.47525 4.4776 2.2388C4.4776 1.00234 3.47525 0 2.2388 0C1.00234 0 0 1.00234 0 2.2388C0 3.47525 1.00234 4.4776 2.2388 4.4776Z" fill="#3A82DC"/>
<path d="M3.7508 7.15087H0.727687C0.575163 7.15087 0.451519 7.27452 0.451519 7.42704V19.3869C0.451519 19.5395 0.575163 19.6631 0.727687 19.6631H3.7508C3.90332 19.6631 4.02697 19.5395 4.02697 19.3869V7.42704C4.02697 7.27452 3.90332 7.15087 3.7508 7.15087Z" fill="#3D3A39"/>
<path d="M16.1303 8.39918L23.2425 0.497109C23.4156 0.305633 23.2794 7.62939e-06 23.0216 7.62939e-06H19.0135C18.9288 7.62939e-06 18.8478 0.0349889 18.7926 0.099428L11.1777 8.5612V0.298269C11.1777 0.134409 11.0451 7.62939e-06 10.8794 7.62939e-06H7.90052C7.73666 7.62939e-06 7.60226 0.132568 7.60226 0.298269V19.3649C7.60226 19.5287 7.73482 19.6631 7.90052 19.6631H10.8794C11.0433 19.6631 11.1777 19.5306 11.1777 19.3649V13.9041L13.6651 11.1406L19.297 19.5306C19.3523 19.6134 19.4443 19.6631 19.5437 19.6631H23.1321C23.3696 19.6631 23.5132 19.398 23.3788 19.1992L16.1303 8.40102V8.39918Z" fill="#3D3A39"/>
<path d="M63.0366 19.3612V0.281698C63.0366 0.125204 63.1636 7.62939e-06 63.3183 7.62939e-06H66.868C66.9711 7.62939e-06 67.0668 0.0570822 67.1165 0.147297L74.3226 13.1235H74.4552C74.3484 12.098 74.3226 8.96072 74.3226 7.84685V0.281698C74.3226 0.125204 74.4497 7.62939e-06 74.6043 7.62939e-06H77.749C77.9054 7.62939e-06 78.0306 0.127045 78.0306 0.281698V19.3594C78.0306 19.5158 77.9036 19.641 77.749 19.641H74.1993C74.0962 19.641 74.0004 19.584 73.9507 19.4919L66.798 6.51756H66.6654C66.7538 7.57804 66.7722 10.638 66.7722 11.7684V19.3594C66.7722 19.5158 66.6452 19.641 66.4905 19.641H63.3201C63.1636 19.641 63.0384 19.514 63.0384 19.3594L63.0366 19.3612Z" fill="#3A82DC"/>
<path d="M87.4441 20.0001C86.0136 20.0001 84.723 19.7 83.5667 19.0998C82.4124 18.4996 81.4918 17.6324 80.8032 16.5001C80.1165 15.3678 79.7722 14.0109 79.7722 12.4331C79.7722 11.2658 79.9692 10.2182 80.3632 9.29215C80.7572 8.36607 81.2985 7.57255 81.9852 6.91159C82.672 6.25063 83.4415 5.74432 84.294 5.39267C85.1464 5.04101 86.0301 4.86427 86.947 4.86427C88.3573 4.86427 89.5412 5.16069 90.493 5.75168C91.4467 6.34452 92.1648 7.1583 92.6508 8.19669C93.1369 9.23508 93.3799 10.4244 93.3799 11.7629C93.3799 12.1072 93.3615 12.4368 93.3247 12.7535C93.3007 12.9541 93.2749 13.129 93.2436 13.28C93.216 13.4181 93.0945 13.5138 92.9564 13.5138H84.0528C83.865 13.5138 83.7251 13.6906 83.7637 13.8784C83.8926 14.4933 84.1191 15.0254 84.4413 15.4709C84.8261 16.003 85.3213 16.4025 85.9252 16.6677C86.5309 16.9346 87.2177 17.0672 87.9873 17.0672C88.6096 17.0672 89.1969 16.9862 89.7474 16.8223C90.2168 16.6824 90.6937 16.4836 91.1779 16.2258C91.316 16.1522 91.4872 16.1963 91.5682 16.3326L92.6453 18.1479C92.73 18.2897 92.6858 18.4775 92.5459 18.5603C91.8591 18.9691 91.1006 19.3041 90.2684 19.5637C89.3331 19.8546 88.3886 20.0019 87.4368 20.0019L87.4441 20.0001ZM83.9791 10.9639H89.6148C89.7842 10.9639 89.9186 10.8166 89.9094 10.6435C89.8615 9.82976 89.6314 9.1688 89.2171 8.65881C88.7495 8.08438 88.0112 7.79716 87.0041 7.79716C86.472 7.79716 85.9676 7.91316 85.4925 8.14514C85.0157 8.37712 84.6125 8.72877 84.2829 9.2001C84.0123 9.58673 83.8153 10.0525 83.6938 10.5938C83.6514 10.7816 83.7914 10.962 83.981 10.962L83.9791 10.9639Z" fill="#3A82DC"/>
<path d="M97.9404 12.225L93.8954 5.7977C93.7776 5.60991 93.9046 5.35951 94.1182 5.35951H97.5482C97.6403 5.35951 97.7268 5.40922 97.7747 5.49208L100.037 9.3216H100.221L102.354 5.4976C102.401 5.41107 102.49 5.35767 102.584 5.35767H106.133C106.349 5.35767 106.476 5.61175 106.354 5.79954L102.215 12.2232C102.155 12.3171 102.153 12.4423 102.214 12.538L106.365 19.1973C106.483 19.3851 106.354 19.6355 106.143 19.6355H102.736C102.644 19.6355 102.558 19.5858 102.51 19.503L100.168 15.5575H99.984L97.7213 19.5011C97.6734 19.5858 97.5869 19.6374 97.493 19.6374H94.0611C93.8494 19.6374 93.7205 19.3888 93.8365 19.201L97.9422 12.538C98.0011 12.4441 97.9993 12.3208 97.9422 12.2269L97.9404 12.225Z" fill="#3A82DC"/>
<path d="M112.003 20C110.454 20 109.331 19.4937 108.633 18.4811C107.936 17.4685 107.588 16.06 107.588 14.2576V5.63378C107.588 5.47728 107.715 5.35209 107.869 5.35209H111.031C111.187 5.35209 111.312 5.47913 111.312 5.63378V13.7991C111.312 14.9056 111.474 15.6789 111.796 16.1208C112.119 16.5626 112.638 16.7836 113.354 16.7836C113.932 16.7836 114.438 16.6437 114.873 16.362C115.289 16.0932 115.724 15.6642 116.178 15.075C116.217 15.0253 116.237 14.9627 116.237 14.9001V5.63378C116.237 5.47728 116.364 5.35209 116.519 5.35209H119.706C119.862 5.35209 119.988 5.47913 119.988 5.63378V19.3611C119.988 19.5176 119.861 19.6428 119.706 19.6428H117.173C117.031 19.6428 116.911 19.5379 116.893 19.398L116.646 17.5753H116.545C115.932 18.3062 115.269 18.8935 114.554 19.3372C113.84 19.7809 112.99 20 112.003 20Z" fill="#3A82DC"/>
<path d="M126.801 20C125.809 20 124.806 19.8104 123.787 19.433C122.876 19.0942 122.073 18.6744 121.383 18.17C121.25 18.0724 121.225 17.8846 121.322 17.752L122.747 15.8336C122.845 15.701 123.031 15.6752 123.167 15.7691C124.049 16.3841 124.923 16.8204 125.791 17.0763C125.809 17.0819 125.827 17.0855 125.846 17.0874C127.149 17.2604 128.048 17.1444 128.541 16.7394C128.887 16.4559 129.059 16.0913 129.059 15.6458C129.059 15.2849 128.908 14.9811 128.607 14.7326C128.306 14.484 127.917 14.2613 127.438 14.0624C126.96 13.8654 126.464 13.6721 125.951 13.4825C125.33 13.2431 124.715 12.9504 124.106 12.6079C123.495 12.2655 122.987 11.8236 122.58 11.2823C122.173 10.741 121.968 10.069 121.968 9.26079C121.968 8.40283 122.199 7.64244 122.659 6.98148C123.119 6.32052 123.762 5.80133 124.585 5.4239C125.408 5.04647 126.385 4.85683 127.519 4.85683C128.653 4.85683 129.559 5.03726 130.401 5.39812C131.13 5.71111 131.77 6.06277 132.321 6.45308C132.457 6.55066 132.483 6.74214 132.382 6.8747L130.988 8.69556C130.89 8.8226 130.71 8.85022 130.576 8.76C130.125 8.45806 129.677 8.21319 129.233 8.02356C128.711 7.80078 128.175 7.68847 127.626 7.68847C126.936 7.68847 126.431 7.81735 126.113 8.07511C125.794 8.33286 125.634 8.66795 125.634 9.07852C125.634 9.4228 125.767 9.71002 126.032 9.94016C126.297 10.1721 126.66 10.3747 127.12 10.5459C127.58 10.7171 128.066 10.8975 128.58 11.0872C129.075 11.2584 129.567 11.4609 130.055 11.6929C130.541 11.9249 130.988 12.2029 131.395 12.5288C131.802 12.8546 132.126 13.2542 132.363 13.7255C132.603 14.1987 132.722 14.7676 132.722 15.4377C132.722 16.2791 132.496 17.0469 132.045 17.741C131.594 18.4351 130.929 18.9856 130.053 19.3888C129.176 19.792 128.092 19.9945 126.799 19.9945L126.801 20Z" fill="#3A82DC"/>
</svg>
